<svg xmlns="http://www.w3.org/2000/svg" width="145" height="30" viewBox="0 0 145 30">
  <g fill="none" fill-rule="evenodd">
    <path fill="#022A3B" d="M93.6940958,2.79870705 L93.6940958,9.42101089 L99.5526248,9.42101089 L99.5526248,14.4271338 L93.6940958,14.4271338 L93.6940958,21.2859485 C93.6940958,23.3357561 94.6838219,24.1634737 96.3463641,24.1634737 C97.2172666,24.1634737 98.4046555,23.8481728 99.2359972,23.3751511 L100.700594,28.341879 C99.1567343,29.1695966 97.5338942,29.8003391 95.2775164,29.8003391 C90.3295919,29.8003391 87.360696,27.1199297 87.360696,21.916691 L87.360696,14.4271338 L83.7585448,14.4271338 L83.7585448,9.42101089 L87.360696,9.42101089 L87.360696,2.79870705 L93.6940958,2.79870705 Z M112.060941,8.82971969 C117.642403,8.82971969 121.165433,11.6284549 121.165433,16.6739728 L121.165433,29.2090479 L115.069398,29.2090479 L115.069398,27.7505878 C113.683781,28.9331421 111.783874,29.8003954 109.131747,29.8003954 C104.698254,29.8003954 101.729358,27.2381711 101.729358,23.3358124 C101.729358,19.472708 104.698254,16.9498787 110.00265,16.9498787 L115.069398,16.9498787 L115.069398,16.5557877 C115.069398,14.9000711 113.921428,13.7964476 112.258745,13.7964476 C110.358838,13.7964476 109.25043,14.5453751 108.933802,16.2798819 L102.956591,15.0579326 C103.827493,11.2342232 107.310821,8.82971969 112.060941,8.82971969 Z M131.140092,9.42095461 L131.140092,20.2216637 C131.140092,22.5473772 132.525568,24.1240224 134.54444,24.1240224 C137.038182,24.1240224 138.661164,22.4291921 138.661164,18.6054828 L138.661164,9.42095461 L144.994705,9.42095461 L144.994705,29.2090761 L138.661164,29.2090761 L138.661164,27.3169893 C137.156865,28.8937752 135.059012,29.8004235 132.565129,29.8004235 C127.933832,29.8004235 124.846112,26.5286667 124.846112,21.5617981 L124.846112,9.42095461 L131.140092,9.42095461 Z M55.6155927,9.38155958 L60.4054153,21.6013338 L65.1553945,9.38155958 L71.8451239,9.38155958 L63.611676,29.2090761 L57.1593112,29.2090761 L48.9258632,9.38155958 L55.6155927,9.38155958 Z M81.0672808,9.42103903 L81.0672808,29.2091605 L74.733881,29.2091605 L74.733881,9.42103903 L81.0672808,9.42103903 Z M115.069398,20.9705632 L110.715168,20.9705632 C109.131747,20.9705632 108.142162,21.7984215 108.142162,23.0203708 C108.142162,24.2817151 109.25043,25.0701784 110.912972,25.0701784 C113.090087,25.0701784 115.069398,23.6115776 115.069398,21.4041898 L115.069398,20.9705632 Z M77.9005809,1.91101615e-13 C80.0381352,1.91101615e-13 81.581995,1.65557596 81.581995,3.5870578 C81.581995,5.59747038 80.0381352,7.09532554 77.9005809,7.09532554 C75.7630267,7.09532554 74.258869,5.59747038 74.258869,3.5870578 C74.258869,1.65557596 75.7630267,1.91101615e-13 77.9005809,1.91101615e-13 Z"/>
    <path fill="#0AF" d="M27.5600558,21.2288257 C29.7613312,21.2288257 31.5518807,23.009903 31.5518807,25.1992815 C31.5518807,27.3885194 29.7613312,29.1694559 27.5600558,29.1694559 C25.3589217,29.1694559 23.5682309,27.3885194 23.5682309,25.1992815 C23.5682309,23.009903 25.3589217,21.2288257 27.5600558,21.2288257 Z M12.3088911,21.2288257 C14.5100252,21.2288257 16.3008574,23.009903 16.3008574,25.1992815 C16.3008574,27.3885194 14.5100252,29.1694559 12.3088911,29.1694559 C10.1077571,29.1694559 8.31692492,27.3885194 8.31692492,25.1992815 C8.31692492,23.009903 10.1077571,21.2288257 12.3088911,21.2288257 Z M27.5600558,22.821651 C26.2421164,22.821651 25.1698777,23.8882713 25.1698777,25.1992815 C25.1698777,26.510151 26.2421164,27.5767713 27.5600558,27.5767713 C28.8782778,27.5767713 29.9505165,26.510151 29.9505165,25.1992815 C29.9505165,23.8882713 28.8782778,22.821651 27.5600558,22.821651 Z M12.3088911,22.821651 C10.9908104,22.821651 9.91857174,23.8882713 9.91857174,25.1992815 C9.91857174,26.510151 10.9908104,27.5767713 12.3088911,27.5767713 C13.6269719,27.5767713 14.6992105,26.510151 14.6992105,25.1992815 C14.6992105,23.8882713 13.6269719,22.821651 12.3088911,22.821651 Z M25.7010661,9.38866476 C27.6500001,9.36629401 29.6513522,9.36038476 31.6363148,9.42060287 C33.5615123,9.47927332 34.839891,10.9394218 34.839891,13.0293279 L34.839891,13.0293279 L34.839891,22.1878272 C34.839891,22.6275039 34.541207,22.9841696 34.0989739,22.9841696 C33.6565995,22.9841696 33.3580568,22.6275039 33.3580568,22.1878272 L33.3580568,22.1878272 L33.3580568,13.0293279 C33.3580568,12.4433269 33.1509278,11.0753346 31.647194,11.0294676 C29.695858,10.9702343 27.6750082,10.9927458 25.7414746,11.0151165 C24.7082315,11.0266537 23.6638267,11.0381908 22.6325617,11.0381908 L22.6325617,11.0381908 L17.1505666,11.0379094 L13.6286673,11.0363617 C13.4714132,11.0363617 13.3106268,11.0339699 13.1489928,11.0321408 C12.0388888,11.0156793 10.9933536,11.003298 10.3144622,11.6538787 C9.82263682,12.1252121 9.49159779,12.7764963 9.14134352,13.466472 C8.80804387,14.1219771 8.46344113,14.7998529 7.94731412,15.3947178 C7.06440208,16.4119537 5.55727729,16.8624639 4.44787973,17.0614088 C2.96321982,17.3281694 2.34409347,17.8079446 1.90073005,19.0373508 C1.61871814,19.8189199 1.62705416,20.6961627 1.63595534,21.6243377 C1.63736822,21.7895154 1.63906369,21.9541303 1.63906369,22.1179011 C1.6389224,22.3480806 1.63016251,22.5985204 1.62112004,22.8596531 C1.58678693,23.8256754 1.54440037,25.0293342 2.00909836,25.5082651 C2.07253691,25.5734076 2.26567833,25.774463 2.84015751,25.774463 L2.84015751,25.774463 L5.64303943,25.774463 C6.08527254,25.774463 6.44372155,26.1636295 6.44372155,26.6034469 C6.44372155,27.0431235 6.08527254,27.4324308 5.64303943,27.4324308 L5.64303943,27.4324308 L2.84001622,27.4324308 C2.00768547,27.4324308 1.34037973,27.1452692 0.856607789,26.6467814 C-0.0799938981,25.6816033 -0.0243262159,24.0876524 0.0204622491,22.8208209 C0.0290808496,22.5789636 0.0372755846,22.3386539 0.0376994502,22.1254987 C0.0376994502,21.9673558 0.0361452763,21.8035851 0.0345911024,21.6437538 C0.0248421936,20.6161064 0.0146694192,19.5514558 0.393322688,18.5015784 C1.03081655,16.7334452 2.12325949,15.8612675 4.16388978,15.4948938 C5.37190674,15.2785025 6.28491324,14.8728677 6.73463464,14.3545485 C7.12289553,13.9075556 7.40886352,13.3442067 7.71150356,12.7479349 C8.10711145,11.9701645 8.51529402,11.1659432 9.20280403,10.50678 C10.3558597,9.40160884 11.9146961,9.42299471 13.1699035,9.43931551 C13.3241905,9.44156665 13.4773473,9.4436771 13.6276783,9.4436771 L13.6276783,9.4436771 L17.149295,9.41159829 C18.4117081,9.41258317 19.6741211,9.378816 20.9375232,9.378816 L20.9375232,9.378816 L22.6212586,9.378816 C23.6467308,9.378816 24.6736158,9.40048327 25.7010661,9.38866476 Z M21.6576708,25.7744348 C22.0999039,25.7744348 22.4584942,26.1637421 22.4584942,26.6034187 C22.4584942,27.0430953 22.0999039,27.4324026 21.6576708,27.4324026 L21.6576708,27.4324026 L18.4549423,27.4324026 C18.0125679,27.4324026 17.6542602,27.0430953 17.6542602,26.6034187 C17.6542602,26.1637421 18.0125679,25.7744348 18.4549423,25.7744348 L18.4549423,25.7744348 Z M17.8104406,12.4000768 C18.756226,12.4000768 19.6269872,12.8289198 20.1993471,13.5770032 L20.1993471,13.5770032 L23.1445066,17.3475293 C24.141721,18.6510825 23.8691755,20.5876294 22.5544857,21.5827759 C22.0185782,21.9882633 21.384334,22.2025441 20.7208431,22.2025441 C19.7922948,22.2025441 18.9365102,21.7803138 18.3729102,21.0433455 L18.3729102,21.0433455 L15.4250663,17.1900899 C14.4236131,15.8803459 14.679628,14.0054241 15.9957306,13.009152 C16.5225956,12.6104181 17.1501993,12.4000768 17.8104406,12.4000768 Z M41.2756684,19.3267213 C41.7179015,19.3267213 42.0763506,19.7160286 42.0763506,20.1557052 C42.0763506,20.5953818 41.7179015,20.9846891 41.2756684,20.9846891 L41.2756684,20.9846891 L38.4730691,20.9846891 C38.0309773,20.9846891 37.6722457,20.5953818 37.6722457,20.1557052 C37.6722457,19.7160286 38.0309773,19.3267213 38.4730691,19.3267213 L38.4730691,19.3267213 Z M20.913278,17.0873814 L18.6621278,18.7907942 L19.6457786,20.0766197 C20.0957826,20.665716 20.9820856,20.7716605 21.5848224,20.3149596 C22.2087526,19.8430635 22.3415638,18.9283954 21.8747465,18.3181946 L21.8747465,18.3181946 L20.913278,17.0873814 Z M42.0763506,16.1949152 C42.5185837,16.1949152 42.8773152,16.5842225 42.8773152,17.0238991 C42.8773152,17.4637165 42.5185837,17.852883 42.0763506,17.852883 L42.0763506,17.852883 L38.4730691,17.852883 C38.0309773,17.852883 37.6722457,17.4637165 37.6722457,17.0238991 C37.6722457,16.5842225 38.0309773,16.1949152 38.4730691,16.1949152 L38.4730691,16.1949152 Z M17.8104406,13.9929021 C17.503138,13.9929021 17.2110946,14.0908269 16.9652526,14.276687 C16.3520603,14.7409855 16.2326715,15.6152737 16.6994888,16.2253338 L16.6994888,16.2253338 L17.6924646,17.5232592 L19.9308989,15.8295545 L18.9300109,14.5480906 C18.6581718,14.1926912 18.2518259,13.9929021 17.8104406,13.9929021 Z M43.6779832,12.6947516 C44.1202163,12.6947516 44.4786654,12.9919027 44.4786654,13.4315793 C44.4786654,13.8713966 44.1202163,14.1685477 43.6779832,14.1685477 L43.6779832,14.1685477 L38.473055,14.1685477 C38.0309631,14.1685477 37.6722316,13.8713966 37.6722316,13.4315793 C37.6722316,12.9919027 38.0309631,12.6947516 38.473055,12.6947516 L38.473055,12.6947516 Z"/>
  </g>
</svg>
